<?xml version="1.0" encoding="UTF-8"?>
<svg width="32" height="32" viewBox="0 0 32 32" fill="none" xmlns="http://www.w3.org/2000/svg">
  <rect width="32" height="32" rx="8" fill="url(#paint0_linear_1_2)" fill-opacity="0.9"/>
  <path d="M9.92578 21.1243C10.0364 20.9993 10.1949 20.928 10.3618 20.928H24.6667C24.9429 20.928 25.081 21.2737 24.879 21.4644L22.0742 24.1243C21.9636 24.2493 21.8051 24.3206 21.6382 24.3206H7.33333C7.05719 24.3206 6.91905 23.9749 7.12105 23.7842L9.92578 21.1243Z" fill="white"/>
  <path d="M9.92891 7.8757C10.0395 8.00069 10.198 8.072 10.3649 8.072H24.6667C24.9428 8.072 25.0809 7.72632 24.8789 7.53562L22.0711 4.8757C21.9605 4.75071 21.802 4.6794 21.6351 4.6794H7.33333C7.05719 4.6794 6.91905 5.02508 7.12105 5.21578L9.92891 7.8757Z" fill="white"/>
  <path d="M22.0711 14.4587C21.9605 14.3337 21.802 14.2624 21.6351 14.2624H7.33333C7.05719 14.2624 6.91905 14.6081 7.12105 14.7988L9.92578 17.4587C10.0364 17.5837 10.1949 17.655 10.3618 17.655H24.6667C24.9429 17.655 25.081 17.3093 24.879 17.1186L22.0711 14.4587Z" fill="white"/>
  <defs>
    <linearGradient id="paint0_linear_1_2" x1="0" y1="0" x2="32" y2="32" gradientUnits="userSpaceOnUse">
      <stop stop-color="#9945FF"/>
      <stop offset="0.5" stop-color="#14F195"/>
      <stop offset="1" stop-color="#00FFA3"/>
    </linearGradient>
  </defs>
</svg>
